{"title":"Tumbledown 2015 720p H264 AC3 [ITRG][IndexTorrent]","uid":14371989,"size":945539898,"categoryP":"video","categoryS":"movies","magnet":"?xt=urn:btih:c8f9a275317caf95ce575a201e88cf1b28164cd6&amp;dn=Tumbledown+2015+720p+H264+AC3+%5BITRG%5D%5BIndexTorrent%5D&amp;tr=udp%3A%2F%2Ftracker.leechers-paradise.org%3A6969&amp;tr=udp%3A%2F%2Fzer0day.ch%3A1337&amp;tr=udp%3A%2F%2Fopen.demonii.com%3A1337&amp;tr=udp%3A%2F%2Ftracker.coppersurfer.tk%3A6969&amp;tr=udp%3A%2F%2Fexodus.desync.com%3A6969","seeders":1,"leechers":0,"uploader":"ITRG","files":5,"time":1461168469,"description":"SCREEN SHOTS \nhttp://extraimago.com/images/2016/04/20/190a68.jpg \nhttp://extraimago.com/images/2016/04/20/262416.jpg \nhttp://extraimago.com/images/2016/04/20/30b1fb.jpg\r\n\r\nGeneral\r\nUnique ID                   : 327921642076456047113053964080361714633 (0xF6B369368F559B6AE1AFB7E67B1B33C9)\r\nComplete name               : C:BDConvertedTumbledown.2015Tumbledown 2015 720p H264 AC3 [ITRG][IndexTorrent.com]Tumbledown 2015 720p H264 AC3 [ITRG][IndexTorrent.com].mkv\r\nFormat                      : Matroska\r\nFormat version              : Version 2\r\nFile size                   : 901 MiB\r\nDuration                    : 1h 43mn\r\nOverall bit rate            : 1 221 Kbps\r\nEncoded date                : UTC 2016-04-10T12:23:50Z\r\nWriting application         : HandBrake 0.10.3 2016012200\r\nWriting library             : Lavf55.12.0 / Lavf55.12.0\r\n\r\nVideo\r\nID                          : 1\r\nFormat                      : AVC\r\nFormat/Info                 : Advanced Video Codec\r\nFormat profile              :   \r\nFormat settings, CABAC      : Yes\r\nFormat settings, ReFrames   : 4 frames\r\nCodec ID                    : V_MPEG4/ISO/AVC\r\nDuration                    : 1h 43mn\r\nBit rate                    : 1 150 Kbps\r\nWidth                       : 720 pixels\r\nHeight                      : 320 pixels\r\nDisplay aspect ratio        : 2.25:1\r\nFrame rate mode             : Constant\r\nFrame rate                  : 23.976 (24000/1001) fps\r\nColor space                 : YUV\r\nChroma subsampling          : 4:2:0\r\nBit depth                   : 8 bits\r\nScan type                   : Progressive\r\nBits/(Pixel*Frame)          : 0.208\r\nStream size                 : 824 MiB (91%)\r\n\r\nDefault                     : Yes\r\nForced                      : No\r\nColor range                 : Limited\r\nColor primaries             : BT.709\r\nTransfer characteristics    : BT.709\r\nMatrix coefficients         : BT.709\r\n\r\nAudio\r\nID                          : 2\r\nFormat                      : AC-3\r\nFormat/Info                 : Audio Coding 3\r\nMode extension              : CM (complete main)\r\nFormat settings, Endianness : Big\r\nCodec ID                    : A_AC3\r\nDuration                    : 1h 43mn\r\nBit rate mode               : Constant\r\nBit rate                    : 80.0 Kbps\r\nChannel(s)                  : 2 channels\r\nChannel positions           : Front: L R\r\nSampling rate               : 48.0 KHz\r\nFrame rate                  : 31.250 fps (1536 spf)\r\nCompression mode            : Lossy\r\nDelay relative to video     : -5ms\r\nStream size                 : 59.1 MiB (7%)\r\nTitle                       : Stereo\r\nLanguage                    : English\r\nDefault                     : Yes\r\nForced                      : No","torrent":{"xt":"urn:btih:c8f9a275317caf95ce575a201e88cf1b28164cd6","amp;dn":"Tumbledown+2015+720p+H264+AC3+%5BITRG%5D%5BIndexTorrent%5D","amp;tr":["udp%3A%2F%2Ftracker.leechers-paradise.org%3A6969","udp%3A%2F%2Fzer0day.ch%3A1337","udp%3A%2F%2Fopen.demonii.com%3A1337","udp%3A%2F%2Ftracker.coppersurfer.tk%3A6969","udp%3A%2F%2Fexodus.desync.com%3A6969"],"infoHash":"c8f9a275317caf95ce575a201e88cf1b28164cd6","infoHashBuffer":{"type":"Buffer","data":[200,249,162,117,49,124,175,149,206,87,90,32,30,136,207,27,40,22,76,214]},"announce":[],"urlList":[]}}